<svg xmlns="http://www.w3.org/2000/svg" viewBox="0 0 260.87 60.03"><defs><style>.cls-1{fill:#fff;}</style></defs><g id="Layer_2" data-name="Layer 2"><g id="Layer_4" data-name="Layer 4"><path class="cls-1" d="M65.6,0l-26,60H25.9L0,0H15L33.27,42.88,51.8,0Z"/><path class="cls-1" d="M120.49,48.88V60H74V0h45.36V11.15H87.81v13h27.88V35H87.81V48.88Z"/><path class="cls-1" d="M173.23,60,161.65,43.31H148.88V60H135V0h26C177,0,187,8.32,187,21.78c0,9-4.55,15.61-12.35,18.95L188.15,60Zm-13-48.71H148.88V32.24h11.31c8.49,0,12.78-3.94,12.78-10.46S168.68,11.32,160.19,11.32Z"/><path class="cls-1" d="M241,47.17H213.11L207.79,60H193.56L220.31,0H234l26.84,60H246.29ZM236.6,36.62l-9.51-23-9.52,23Z"/></g></g></svg>